<?xml version="1.0" encoding="iso-8859-1"?>
<!-- Generator: Adobe Illustrator 21.0.0, SVG Export Plug-In . SVG Version: 6.00 Build 0)  -->
<svg version="1.1" id="Capa_1" xmlns="http://www.w3.org/2000/svg" xmlns:xlink="http://www.w3.org/1999/xlink" x="0px" y="0px"
	 viewBox="0 0 512 512" style="enable-background:new 0 0 512 512;" xml:space="preserve">
<g>
	<circle style="fill:#46738C;" cx="414.345" cy="98.7" r="17.161"/>
	
		<rect x="369.526" y="173.808" transform="matrix(0.7071 -0.7071 0.7071 0.7071 -20.9231 325.9183)" style="fill:#46738C;" width="26.862" height="28.816"/>
	
		<rect x="311.284" y="115.549" transform="matrix(0.7071 -0.7071 0.7071 0.7071 3.2133 267.6712)" style="fill:#46738C;" width="26.862" height="28.816"/>
</g>
<path style="fill:#2A556E;" d="M302.602,241.267l-30.821-30.821c-6.874-6.874-6.874-18.021,0-24.895l76.93-76.93
	c6.874-6.874,18.021-6.874,24.895,0l30.821,30.821c6.874,6.874,6.874,18.021,0,24.895l-76.93,76.93
	C320.622,248.141,309.476,248.141,302.602,241.267z"/>
<path style="fill:#A5C8CD;" d="M386.801,126.247c15.21,15.21,39.872,15.21,55.083,0l-55.083-55.083
	C371.59,86.375,371.59,111.036,386.801,126.247z"/>
<g>
	<path style="fill:#D0FBFD;" d="M452.097,106.249c-4.167,0-7.544-3.378-7.544-7.544c0-16.659-13.554-30.212-30.212-30.212
		c-4.167,0-7.544-3.378-7.544-7.544s3.377-7.544,7.544-7.544c24.979,0,45.3,20.321,45.3,45.3
		C459.642,102.872,456.265,106.249,452.097,106.249z"/>
	<path style="fill:#D0FBFD;" d="M478.958,106.249c-4.168,0-7.544-3.378-7.544-7.544c0-31.47-25.602-57.072-57.072-57.072
		c-4.167,0-7.544-3.378-7.544-7.544s3.377-7.544,7.544-7.544c39.79,0,72.161,32.371,72.161,72.161
		C486.503,102.872,483.126,106.249,478.958,106.249z"/>
</g>
<g>
	<path style="fill:#A5C8CD;" d="M463.766,316.492c-6.046,0-11.729-2.355-16.004-6.629l-72.365-72.365
		c-8.823-8.824-8.824-23.182,0-32.007l24.841-24.841c4.275-4.275,9.959-6.629,16.004-6.629c6.046,0,11.729,2.355,16.004,6.629
		l72.365,72.365c8.823,8.825,8.823,23.183,0,32.008l-24.842,24.84C475.495,314.137,469.811,316.492,463.766,316.492z
		 M416.242,189.108c-2.015,0-3.91,0.785-5.334,2.21l-24.841,24.841c-2.942,2.941-2.942,7.727,0,10.669l72.365,72.365
		c1.424,1.425,3.319,2.21,5.334,2.21s3.91-0.785,5.334-2.21l24.842-24.84c2.941-2.941,2.941-7.728-0.001-10.67l-72.365-72.365
		C420.151,189.894,418.256,189.108,416.242,189.108z"/>
	<path style="fill:#A5C8CD;" d="M291.436,144.152c-5.796,0-11.591-2.206-16.003-6.618l-72.365-72.365
		c-4.274-4.275-6.629-9.959-6.629-16.004s2.355-11.729,6.63-16.004l24.839-24.84c4.276-4.275,9.959-6.629,16.004-6.629
		c6.047,0,11.729,2.355,16.004,6.629l72.365,72.365c8.824,8.825,8.823,23.183,0,32.007l-24.84,24.841
		C303.029,141.946,297.233,144.152,291.436,144.152z M243.912,16.78c-2.015,0-3.91,0.785-5.335,2.21l-24.839,24.84
		c-1.425,1.425-2.21,3.32-2.21,5.334c0,2.015,0.785,3.909,2.209,5.334h0.001l72.364,72.365c2.942,2.942,7.728,2.94,10.67,0
		l24.839-24.84c2.942-2.941,2.942-7.727,0-10.669L249.245,18.99C247.822,17.565,245.928,16.78,243.912,16.78z"/>
</g>
<path style="fill:#87AFB9;" d="M134.237,512c-13.421,0-24.302-10.88-24.302-24.301V293.456c0-13.421,10.88-24.301,24.302-24.301
	c13.421,0,24.302,10.88,24.302,24.301v194.244C158.539,501.12,147.659,512,134.237,512z"/>
<path style="fill:#B4D7DC;" d="M75.575,512c-13.421,0-24.302-10.88-24.302-24.301V293.456c0-13.421,10.88-24.301,24.302-24.301
	s24.302,10.88,24.302,24.301v194.244C99.875,501.12,88.995,512,75.575,512z"/>
<path style="fill:#C8E6EB;" d="M209.042,147.067c-0.132-26.294-21.966-47.683-48.671-47.683c-0.564,0-1.179,0-1.832,0
	c-14.573,0-85.223,0-107.264,0c-0.652,0-1.267,0-1.832,0c-26.705,0-48.539,21.391-48.671,47.683c0,0.034,0,0.067,0,0.102v148.777
	c0,11.185,9.067,20.251,20.251,20.251c11.185,0,20.251-9.067,20.251-20.251V147.235c0.042-3.851,3.925-7.349,8.169-7.349h1.83
	v153.57h0.002h107.264h0.002v-153.57h1.83c4.244,0,8.127,3.499,8.169,7.349v148.711c0,11.185,9.067,20.251,20.251,20.251
	c11.185,0,20.251-9.067,20.251-20.251V147.168C209.042,147.135,209.042,147.1,209.042,147.067z"/>
<path style="fill:#FF3C3C;" d="M140.434,168.889h-25.259c-1.778,0-3.219-1.441-3.219-3.219v-12.382c0-1.778,1.441-3.219,3.219-3.219
	h25.259c1.778,0,3.219,1.441,3.219,3.219v12.382C143.654,167.447,142.212,168.889,140.434,168.889z"/>
<path style="fill:#E4F2F6;" d="M157.88,52.949C157.88,23.706,134.174,0,104.931,0S51.982,23.706,51.982,52.949
	c0,13.92,5.379,26.576,14.161,36.028v20.478h77.575V88.977C152.502,79.525,157.88,66.869,157.88,52.949z"/>
<path style="fill:#2A556E;" d="M104.931,26.248c-15.863,0-29.425,6.975-34.968,16.839h-17.05c-0.603,3.197-0.931,6.489-0.931,9.861
	c0,3.402,0.326,6.728,0.94,9.95h17.041c5.543,9.865,19.104,16.839,34.968,16.839s29.426-6.974,34.968-16.839h17.041
	c0.614-3.223,0.94-6.547,0.94-9.95c0-3.372-0.329-6.664-0.931-9.861h-17.05C134.356,33.223,120.794,26.248,104.931,26.248z"/>
<g>
	<rect x="51.273" y="254.999" style="fill:#E4F2F6;" width="107.27" height="19.811"/>
	<rect x="0.772" y="234.88" style="fill:#E4F2F6;" width="40.498" height="19.811"/>
	<rect x="168.541" y="234.88" style="fill:#E4F2F6;" width="40.498" height="19.811"/>
</g>
<g>
</g>
<g>
</g>
<g>
</g>
<g>
</g>
<g>
</g>
<g>
</g>
<g>
</g>
<g>
</g>
<g>
</g>
<g>
</g>
<g>
</g>
<g>
</g>
<g>
</g>
<g>
</g>
<g>
</g>
</svg>
