<?xml version="1.0" encoding="iso-8859-1"?>
<!-- Generator: Adobe Illustrator 21.0.0, SVG Export Plug-In . SVG Version: 6.00 Build 0)  -->
<svg version="1.1" id="Capa_1" xmlns="http://www.w3.org/2000/svg" xmlns:xlink="http://www.w3.org/1999/xlink" x="0px" y="0px"
	 viewBox="0 0 512.001 512.001" style="enable-background:new 0 0 512.001 512.001;" xml:space="preserve">
<path style="fill:#87AFB9;" d="M380.067,380.303l-46.416-63.896c-2.4-3.303-3.576-7.338-3.326-11.413l4.778-78.03
	c0.594-9.697,8.947-17.074,18.632-16.482c9.697,0.593,17.076,8.935,16.482,18.631l-4.392,71.727l42.704,58.787
	c5.71,7.86,3.966,18.86-3.893,24.569C396.728,389.941,385.741,388.114,380.067,380.303z"/>
<path style="fill:#B4D7DC;" d="M412.469,284.74l-46.166-64.32c-5.664-7.892-3.859-18.882,4.033-24.546
	c7.891-5.663,18.88-3.86,24.546,4.033l38.431,53.543l52.408-18.782c9.144-3.277,19.215,1.479,22.492,10.625
	c3.278,9.145-1.479,19.215-10.624,22.493l-64.896,23.257C425.332,293.679,417.068,291.147,412.469,284.74z"/>
<path style="fill:#46738C;" d="M378.076,72.458c-47.089-21.733-82.698-7.572-94.163-1.656c1.377,2.978,2.303,6.21,2.717,9.583
	c2.407,0.72,4.667,1.743,6.745,3.032c-0.025-0.049-0.047-0.099-0.073-0.149c11.085-5.135,40.034-14.559,78.344,3.123
	c23.036,10.632,55.05,16.376,95.155,17.074c15.497,0.267,31.272-0.261,45.2-1.362v-15.41
	C490.836,88.401,420.856,92.203,378.076,72.458z"/>
<path style="fill:#B4D7DC;" d="M183.526,213.84c-1.574-7.941,3.586-15.654,11.528-17.229l63.896-12.667l30.397-55.24
	c3.902-7.093,12.817-9.678,19.908-5.775c7.093,3.903,9.679,12.816,5.776,19.909l-33.689,61.223c-2.088,3.793-5.745,6.47-9.992,7.312
	l-70.596,13.996C192.817,226.942,185.1,221.785,183.526,213.84z"/>
<path style="fill:#C8E6EB;" d="M270.091,167.523c-7.828-9.188-6.725-22.982,2.463-30.81l17.057-14.532
	c7.539-6.423,17.418-9.407,27.252-8.231c9.834,1.176,18.731,6.404,24.543,14.424l5.608,7.738l50.359,67.217l-63.712,45.337
	L270.091,167.523z"/>
<path style="fill:#B4D7DC;" d="M405.086,169.342l-36.934-30.114l-63.464,10.987c-7.983,1.378-15.564-3.967-16.944-11.943
	c-1.381-7.977,3.966-15.563,11.942-16.944l70.049-12.127c4.182-0.723,8.473,0.401,11.763,3.083l42.112,34.337
	c6.275,5.116,7.213,14.349,2.098,20.623C420.579,173.537,411.343,174.445,405.086,169.342z"/>
<path style="fill:#E4F2F6;" d="M305.196,116.674l-8.337-10.044c2.105-11.694-1.091-24.161-9.848-33.741
	c-15.321-16.763-41.834-18.334-59.217-3.509s-19.055,40.433-3.734,57.196c10.554,11.547,26.418,15.884,40.95,12.619l5.325,6.415
	L305.196,116.674z"/>
<path style="fill:#2A556E;" d="M265.718,93.839c-3.293-3.967-9.178-4.513-13.145-1.22c-1.444,1.199-2.429,2.742-2.946,4.41
	c-8.79-2.069-21.818,2.173-33.237,11.652c-0.5,0.415-0.99,0.836-1.471,1.26c1.596,5.978,4.624,11.692,9.142,16.636
	c5.34,5.842,12.04,9.831,19.238,11.931c10.638-9.299,16.721-20.757,16.321-29.44c1.735-0.201,3.433-0.885,4.877-2.084
	C268.464,103.691,269.011,97.806,265.718,93.839z"/>
<g>
	<polygon style="fill:#E4F2F6;" points="214.491,222.645 227.929,219.981 222.906,191.09 209.468,193.754 	"/>
	<polygon style="fill:#E4F2F6;" points="312.308,221.411 320.758,232.197 384.044,185.538 375.832,174.577 	"/>
	<polygon style="fill:#E4F2F6;" points="385.661,153.503 396.278,162.161 415.397,139.924 404.779,131.267 	"/>
</g>
<path style="fill:#2A556E;" d="M110.365,436.067c-9.594-3.044-14.904-13.29-11.86-22.884l22.557-71.086l-46.167-53.732
	c-6.559-7.635-5.688-19.141,1.946-25.701c7.636-6.56,19.142-5.688,25.701,1.946l52.788,61.438c4.116,4.79,5.459,11.37,3.549,17.39
	l-25.63,80.77C130.204,433.799,119.96,439.112,110.365,436.067z"/>
<path style="fill:#46738C;" d="M67.017,174.98c-24.467-2.792-37.922-23.724-36.795-42.347c1.13-18.663,16.966-40.351,57.878-40.052
	l-0.114,15.651c-29.926-0.218-41.39,12.951-42.141,25.347c-0.687,11.342,7.709,24.112,22.947,25.851L67.017,174.98z"/>
<path style="fill:#2A556E;" d="M13.699,282.271c-8.311-0.818-14.409-8.2-13.632-16.525l5.227-56.057
	c0.476-5.101,3.491-9.618,8.019-12.015l78.078-41.31c7.415-3.922,16.604-1.092,20.528,6.322c3.923,7.414,1.092,16.605-6.322,20.527
	l-70.82,37.47l-4.465,47.882c-0.778,8.352-8.18,14.491-16.532,13.712C13.752,282.276,13.725,282.274,13.699,282.271z"/>
<path style="fill:#46738C;" d="M144.581,180.376c2.815-12.186-4.782-24.346-16.968-27.161l-22.622-5.226
	c-20.892-4.826-41.504,9.185-44.681,30.412l-1.466,9.793l-14.216,94.184l79.083,7.786L144.581,180.376z"/>
<path style="fill:#2A556E;" d="M202.578,200.268c-3.577-7.587-12.628-10.838-20.214-7.261l-42.415,19.786l-22.73-43.059
	c-3.351-6.347-10.881-9.236-17.617-6.758l0,0c-8.301,3.054-11.879,12.826-7.513,20.518l32.791,57.775
	c3.121,5.499,9.951,7.667,15.672,4.976l54.765-25.763C202.905,216.905,206.155,207.854,202.578,200.268z"/>
<g>
	<path style="fill:#46738C;" d="M38.245,452.685c9.7,1.027,18.489-5.767,19.938-15.414l24.593-163.712
		c1.444-9.962-5.461-19.208-15.423-20.651c-9.968-1.447-19.207,5.461-20.651,15.423L22.144,431.858
		C20.603,442.118,27.928,451.593,38.245,452.685L38.245,452.685z"/>
	<polygon style="fill:#46738C;" points="1.018,255.541 31.249,258.509 32.566,244.381 2.336,241.412 	"/>
</g>
<polygon style="fill:#2A556E;" points="48.266,258.282 128.275,266.159 130.935,252.163 50.386,244.232 "/>
<polygon style="fill:#46738C;" points="172.544,231.219 185.382,225.166 171.818,197.979 158.98,204.032 "/>
<path style="fill:#2A556E;" d="M126.737,67.54c-23.526-2.633-45.368,14.105-48.787,37.386c-1.954,13.305,2.54,25.86,11.135,34.675
	l-1.325,13.46l46.717,4.6l0.846-8.597c14.368-5.635,25.466-18.565,27.821-34.602C166.562,91.181,150.263,70.174,126.737,67.54z"/>
<path style="fill:#D0FBFD;" d="M161.333,94.878c-0.66-0.085-1.324-0.162-1.994-0.228c-15.303-1.507-28.946,2.415-35.29,9.294
	c-1.412-1.131-3.154-1.885-5.089-2.075c-5.316-0.523-10.05,3.362-10.573,8.678s3.362,10.05,8.678,10.573
	c1.937,0.191,3.795-0.21,5.402-1.046c4.697,7.684,16.556,14.001,31.085,15.808c4.963-5.983,8.4-13.301,9.592-21.419
	C164.152,107.597,163.434,100.935,161.333,94.878z"/>
<g>
</g>
<g>
</g>
<g>
</g>
<g>
</g>
<g>
</g>
<g>
</g>
<g>
</g>
<g>
</g>
<g>
</g>
<g>
</g>
<g>
</g>
<g>
</g>
<g>
</g>
<g>
</g>
<g>
</g>
</svg>
